<?xml version="1.0" encoding="utf-8"?>
<!-- Svg Vector Icons : http://www.onlinewebfonts.com/icon -->
<!DOCTYPE svg PUBLIC "-//W3C//DTD SVG 1.1//EN" "http://www.w3.org/Graphics/SVG/1.1/DTD/svg11.dtd">
<svg version="1.1" xmlns="http://www.w3.org/2000/svg" xmlns:xlink="http://www.w3.org/1999/xlink" x="0px" y="0px" viewBox="0 0 1000 1000" enable-background="new 0 0 1000 1000" xml:space="preserve">
<metadata> Svg Vector Icons : http://www.onlinewebfonts.com/icon </metadata>
<g><g transform="translate(0.000000,511.000000) scale(0.100000,-0.100000)"><path d="M2118.8,2301c-134.4-32.5-251.5-149.6-275.4-275.4l-13-71.6H2186c431.5,0,539.9-23.9,652.7-149.6c180-199.5,149.6-487.9-69.4-641.9l-93.2-65l-485.7-6.5l-485.7-6.5V921.9V761.4h216.8c303.6,0,427.2-56.4,522.6-242.9c95.4-186.5,30.4-420.7-149.6-548.6c-91.1-62.9-106.3-65.1-353.5-73.7l-258-6.5v-147.5v-145.3l130.1-26c420.7-82.4,503.1-613.7,125.8-806.7c-45.5-21.7-117.1-41.2-160.5-41.2h-80.2l13-117.1c13-132.3,82.4-281.9,143.1-316.6c23.9-10.8,160.5-21.7,305.8-21.7h260.2l-15.2,60.7c-34.7,123.6-17.3,442.4,32.5,568.1c145.3,364.3,481.4,596.3,871.7,596.3c307.9,0,576.8-132.3,752.5-368.6c162.6-219,223.3-485.7,173.5-763.3l-15.2-93.2h1628.5c1541.8,0,1628.5,2.2,1613.3,39c-30.4,80.2-36.9,327.4-10.8,440.2c91.1,390.3,390.3,672.2,778.5,739.5c481.4,82.4,962.8-253.7,1066.9-743.8c23.9-112.7,15.2-360-13-435.8c-13-34.7,2.2-39,149.6-39c193,0,284,32.5,364.3,127.9c95.4,110.6,110.6,251.6,99.7,880.4c-8.7,529.1-13,570.3-60.7,678.7c-93.2,216.8-240.7,303.6-1004,600.7l-340.4,134.4l-542.1,724.3c-299.2,399-579,750.3-622.4,785c-171.3,127.9-73.7,123.6-2714.9,121.4C3281.1,2318.3,2160,2309.7,2118.8,2301z M7182.1,1806.6c190.8-138.8,457.5-451,732.9-856.5c78-117.1,143.1-221.2,143.1-232c0-13-360-21.7-986.6-21.7h-986.6v585.5v585.5h505.2h507.4L7182.1,1806.6z"/><path d="M219.3,1685.2C152,1657,100,1574.6,100,1496.5c0-23.9,28.2-73.7,62.9-108.4l62.9-62.9h1181.8c1149.3,0,1181.8,2.2,1236,43.4c114.9,91.1,84.6,275.4-52,323.1C2483.1,1728.5,306,1722,219.3,1685.2z"/><path d="M702.8,457.8c-56.4-58.6-65.1-78.1-54.2-145.3c8.7-43.4,34.7-99.7,58.6-123.6c43.4-43.4,67.2-45.5,739.4-45.5h696.1l52,60.7c56.4,67.2,69.4,175.6,23.9,234.2c-60.7,80.2-108.4,84.6-785,84.6H767.9L702.8,457.8z"/><path d="M1108.3-739.2c-67.2-80.2-62.9-167,15.2-249.4c45.5-47.7,60.7-49.9,375.1-49.9c299.2,0,331.8,4.3,375.1,43.4c26,23.8,54.2,69.4,60.7,97.6c17.3,67.2-26,177.8-80.2,206c-21.7,13-184.3,21.7-362.1,21.7h-325.3L1108.3-739.2z"/><path d="M3098.9-817.2c-457.5-162.6-587.6-737.3-247.2-1086.4c247.2-253.7,635.4-264.6,897.7-23.8c351.3,320.9,277.6,860.9-143.1,1077.7C3461.1-776,3250.7-763,3098.9-817.2z"/><path d="M8220.8-797.7c-197.3-49.9-357.8-180-446.7-362.1c-78.1-158.3-73.7-409.8,8.7-566c71.5-138.8,184.3-249.4,316.6-314.4c138.8-69.4,401.2-69.4,548.6-2.2c123.6,56.4,255.9,190.8,323.1,327.4c73.7,147.5,73.7,405.5,0,555.1c-108.4,219-316.6,360-555.1,373C8344.4-782.5,8257.7-786.9,8220.8-797.7z"/></g></g>
</svg>